# xmcd CD database file
#
# Track frame offsets:
#	150
#	20757
#	48870
#	70042
#	82615
#	100205
#	118617
#	143240
#
# Disc length: 2192 seconds
#
# Revision: 0
# Processed by: cddbd v1.4PL0 Copyright (c) Steve Scherf et al.
# Submitted via: CDex 1.50Beta5
#
DISCID=5e088e08
DTITLE=Jimmy Hamilton - Sweet But Hot
DYEAR=1900
DGENRE=Jazz
TTITLE0=I Get A Kick Out Of You
TTITLE1=Blues In My Music room
TTITLE2=I Can't Give You Anything But Love
TTITLE3=Chuckles
TTITLE4=Bohemia After Dark
TTITLE5=Blues For Clarinet
TTITLE6=Solitude
TTITLE7=What Am I Here For
EXTD=
EXTT0=
EXTT1=
EXTT2=
EXTT3=
EXTT4=
EXTT5=
EXTT6=
EXTT7=
PLAYORDER=
